<svg xmlns="http://www.w3.org/2000/svg"  viewBox="0 0 48 48" width="48px" height="48px"><polygon fill="#1e4384" points="9.708,21.703 14.614,9.771 27.19,2.657 37.277,12.18 33.5,36.5 30.369,44.18 17.064,40.5"/><polygon fill="#9fdadf" points="27.514,2.835 28.138,7.695 37,12"/><polygon fill="#73a1b2" points="17.531,16.779 27.813,8 37.5,12.731 33.5,36.5 30.577,43.67"/><polygon fill="#4b7bb2" points="17.064,40.5 17.672,17.07 30.5,44.5"/><polygon fill="#4b7bb2" points="14.614,9.771 17.16,15.891 27.356,7.695 27.19,2.657"/><path d="M37.978,12.352c-0.134-0.429-1.215-1.513-5.137-5.29c-1.904-1.834-3.874-3.73-4.977-4.904 c-0.152-0.161-0.396-0.206-0.591-0.103c-0.941,0.479-1.88,0.948-2.814,1.414c-3.549,1.773-6.901,3.447-10.207,5.596 c-0.033,0.019-0.057,0.046-0.084,0.073c-0.042,0.039-0.078,0.08-0.104,0.129c-0.005,0.01-0.015,0.015-0.02,0.025 c-0.902,1.975-1.652,4.054-2.377,6.063c-0.737,2.043-1.499,4.155-2.415,6.138c-0.058,0.126-0.061,0.27-0.01,0.397 c7.521,18.646,7.812,18.889,7.935,18.992c0.518,0.435,1.691,0.882,2.172,1.054c1.266,0.452,3.931,1.131,6.283,1.729 c2.001,0.509,4.269,1.087,4.636,1.277c0.008,0.004,0.017,0.003,0.026,0.006c0.011,0.005,0.018,0.014,0.029,0.018 C30.382,44.99,30.441,45,30.5,45c0.089,0,0.173-0.031,0.251-0.078c0.016-0.009,0.03-0.016,0.044-0.027 c0.013-0.01,0.028-0.014,0.04-0.025c0.031-0.029,0.039-0.07,0.061-0.105c0.022-0.032,0.056-0.052,0.07-0.09l3.024-8.087 C35.917,25.875,38.171,12.974,37.978,12.352z M32.147,7.782c1.054,1.015,2.231,2.149,3.172,3.082 c-0.509-0.232-1.022-0.46-1.53-0.684c-1.926-0.849-3.911-1.729-5.484-2.824c0.008-0.13,0.007-0.255,0.003-0.359 c-0.025-0.751-0.091-1.521-0.156-2.291c-0.025-0.298-0.049-0.596-0.072-0.893C29.204,4.947,30.692,6.38,32.147,7.782z M24.906,4.364c0.71-0.355,1.423-0.712,2.137-1.074c0.032,0.497,0.07,0.997,0.113,1.5c0.063,0.753,0.128,1.507,0.152,2.241 c0.006,0.158,0.013,0.338-0.033,0.448c-0.055,0.132-0.222,0.264-0.382,0.391c-2.857,2.257-7.763,6.535-9.263,7.85 c-0.766-1.832-1.431-3.436-1.901-4.57c-0.264-0.636-0.464-1.12-0.602-1.449C18.281,7.682,21.501,6.064,24.906,4.364z M12.609,15.695c0.589-1.632,1.194-3.309,1.879-4.927c0.094,0.227,0.2,0.482,0.317,0.765c0.536,1.292,1.327,3.199,2.228,5.351 c0.219,2.034,0.262,4.33,0.294,6.373l0.006,0.355c0.023,1.422,0.001,2.85-0.02,4.23c-0.035,2.273-0.096,4.295-0.157,6.317 c-0.041,1.348-0.08,2.703-0.113,4.125c-1.492-3.509-4.572-11.069-6.792-16.57C11.145,19.753,11.889,17.691,12.609,15.695z M25.881,42.697c-2.331-0.594-4.973-1.267-6.194-1.702c-0.567-0.203-1.283-0.504-1.682-0.756c0.035-2.162,0.093-4.108,0.152-6.048 c0.061-2.026,0.122-4.053,0.157-6.331c0.021-1.389,0.044-2.824,0.02-4.262l-0.006-0.355c-0.018-1.113-0.038-2.302-0.087-3.487 c2.052,4.855,4.353,10.172,5.636,12.69c0.627,1.231,1.296,2.477,1.972,3.733c1.318,2.454,2.678,4.982,3.765,7.498 C28.771,43.435,27.512,43.112,25.881,42.697z M33.032,36.324l-2.565,6.841c-1.095-2.516-2.428-5.024-3.737-7.46 c-0.671-1.25-1.337-2.488-1.961-3.713c-1.512-2.968-4.464-9.889-6.731-15.299c1.081-0.948,6.446-5.644,9.476-8.038 c0.128-0.101,0.269-0.222,0.399-0.364c1.621,1.094,3.573,1.968,5.475,2.805c1.29,0.568,2.501,1.112,3.608,1.709 C36.811,14.87,34.558,27.784,33.032,36.324z"/></svg>